<?xml version="1.0"?>
<svg width="640" height="480" xmlns="http://www.w3.org/2000/svg" xmlns:svg="http://www.w3.org/2000/svg" xmlns:xlink="http://www.w3.org/1999/xlink">
 <!-- Created with SVG-edit - https://github.com/SVG-Edit/svgedit-->
 <defs>
  <symbol height="700pt" id="svg_21" version="1.1" viewBox="0 0 700 700" width="700pt" xmlns="http://www.w3.org/2000/svg" xmlns:xlink="http://www.w3.org/1999/xlink">
   <defs>
    <symbol id="svg_20" overflow="visible">
     <path d="m3.67,-0.22c-0.19,0.09 -0.38,0.17 -0.59,0.22c-0.2,0.05 -0.42,0.08 -0.64,0.08c-0.67,0 -1.2,-0.18 -1.6,-0.55c-0.38,-0.37 -0.57,-0.88 -0.57,-1.53c0,-0.63 0.19,-1.14 0.57,-1.52c0.4,-0.37 0.93,-0.56 1.6,-0.56c0.22,0 0.44,0.03 0.64,0.08c0.21,0.05 0.4,0.13 0.59,0.23l0,0.82c-0.19,-0.13 -0.37,-0.22 -0.56,-0.28s-0.39,-0.1 -0.59,-0.1c-0.37,0 -0.66,0.12 -0.86,0.36c-0.21,0.24 -0.32,0.56 -0.32,0.97c0,0.42 0.11,0.75 0.32,0.98c0.2,0.23 0.49,0.35 0.86,0.35c0.2,0 0.4,-0.03 0.59,-0.1s0.37,-0.15 0.56,-0.28l0,0.83z"/>
    </symbol>
    <symbol id="svg_6" overflow="visible">
     <path d="m2.69,-2.19c-0.09,-0.03 -0.17,-0.05 -0.25,-0.08c-0.09,-0.02 -0.17,-0.03 -0.25,-0.03c-0.25,0 -0.45,0.08 -0.58,0.24c-0.13,0.15 -0.19,0.38 -0.19,0.69l0,1.37l-0.97,0l0,-3l0.97,0l0,0.5c0.13,-0.2 0.27,-0.34 0.42,-0.44s0.35,-0.14 0.58,-0.14c0.03,0 0.06,0.01 0.1,0.02c0.03,0 0.09,0.01 0.17,0.01l0,0.86z"/>
    </symbol>
    <symbol id="svg_3" overflow="visible">
     <path d="m3.45,-1.5l0,0.27l-2.23,0c0.02,0.23 0.1,0.4 0.23,0.51c0.15,0.11 0.35,0.16 0.6,0.16c0.19,0 0.4,-0.03 0.61,-0.08c0.21,-0.06 0.43,-0.16 0.65,-0.28l0,0.73c-0.23,0.1 -0.46,0.17 -0.69,0.21c-0.21,0.03 -0.44,0.06 -0.67,0.06c-0.54,0 -0.96,-0.13 -1.26,-0.41c-0.31,-0.28 -0.46,-0.67 -0.46,-1.17c0,-0.49 0.15,-0.88 0.44,-1.16c0.3,-0.28 0.71,-0.42 1.24,-0.42c0.47,0 0.84,0.15 1.12,0.44c0.28,0.28 0.42,0.66 0.42,1.14zm-0.98,-0.33c0,-0.17 -0.06,-0.32 -0.16,-0.44c-0.1,-0.11 -0.24,-0.17 -0.42,-0.17c-0.19,0 -0.34,0.06 -0.45,0.16c-0.12,0.1 -0.19,0.26 -0.22,0.45l1.25,0z"/>
    </symbol>
    <symbol id="svg_14" overflow="visible">
     <path d="m1.81,-1.34c-0.21,0 -0.36,0.04 -0.47,0.11c-0.09,0.06 -0.14,0.15 -0.14,0.28s0.04,0.22 0.13,0.29c0.08,0.07 0.19,0.1 0.33,0.1c0.18,0 0.33,-0.07 0.45,-0.19c0.12,-0.13 0.19,-0.3 0.19,-0.48l0,-0.11l-0.49,0zm1.46,-0.38l0,1.72l-0.97,0l0,-0.44c-0.13,0.18 -0.28,0.31 -0.44,0.39c-0.16,0.09 -0.35,0.13 -0.58,0.13c-0.31,0 -0.57,-0.09 -0.76,-0.27c-0.19,-0.19 -0.29,-0.42 -0.29,-0.72c0,-0.34 0.12,-0.59 0.36,-0.76c0.25,-0.17 0.63,-0.25 1.14,-0.25l0.57,0l0,-0.08c0,-0.14 -0.07,-0.25 -0.19,-0.33c-0.12,-0.07 -0.3,-0.11 -0.55,-0.11c-0.21,0 -0.4,0.03 -0.58,0.07c-0.18,0.04 -0.34,0.1 -0.48,0.18l0,-0.73c0.21,-0.05 0.41,-0.09 0.61,-0.11c0.21,-0.03 0.41,-0.05 0.62,-0.05c0.54,0 0.93,0.11 1.18,0.33c0.23,0.21 0.36,0.55 0.36,1.03z"/>
    </symbol>
    <symbol id="svg_1" overflow="visible">
     <path d="m1.5,-3.84l0,0.84l1,0l0,0.69l-1,0l0,1.26c0,0.15 0.02,0.25 0.08,0.3c0.06,0.04 0.17,0.06 0.34,0.06l0.49,0l0,0.69l-0.82,0c-0.38,0 -0.65,-0.08 -0.81,-0.23s-0.23,-0.43 -0.23,-0.82l0,-1.26l-0.47,0l0,-0.69l0.47,0l0,-0.84l0.95,0z"/>
    </symbol>
    <symbol id="svg_19" overflow="visible">
     <path d="m2.5,-2.56l0,-1.61l0.97,0l0,4.17l-0.97,0l0,-0.44c-0.14,0.18 -0.28,0.31 -0.44,0.39c-0.15,0.09 -0.34,0.13 -0.54,0.13c-0.38,0 -0.69,-0.15 -0.93,-0.44c-0.23,-0.29 -0.34,-0.67 -0.34,-1.14c0,-0.46 0.11,-0.83 0.34,-1.12c0.24,-0.31 0.55,-0.46 0.93,-0.46c0.2,0 0.39,0.04 0.54,0.13c0.16,0.08 0.3,0.21 0.44,0.39zm-0.62,1.93c0.19,0 0.34,-0.07 0.45,-0.21c0.11,-0.15 0.17,-0.37 0.17,-0.66c0,-0.28 -0.06,-0.49 -0.17,-0.64c-0.11,-0.16 -0.26,-0.24 -0.45,-0.24c-0.22,0 -0.38,0.08 -0.49,0.24c-0.1,0.15 -0.16,0.36 -0.16,0.64c0,0.29 0.06,0.51 0.16,0.66c0.11,0.14 0.27,0.21 0.49,0.21z"/>
    </symbol>
    <symbol id="svg_18" overflow="visible">
     <path d="m2.06,-0.63c0.2,0 0.35,-0.07 0.46,-0.21c0.11,-0.15 0.17,-0.37 0.17,-0.66c0,-0.28 -0.06,-0.49 -0.17,-0.64c-0.11,-0.16 -0.26,-0.24 -0.46,-0.24c-0.21,0 -0.37,0.08 -0.48,0.24c-0.11,0.15 -0.16,0.36 -0.16,0.64s0.05,0.5 0.16,0.66c0.11,0.14 0.27,0.21 0.48,0.21zm-0.64,-1.93c0.13,-0.18 0.28,-0.31 0.44,-0.39c0.16,-0.09 0.34,-0.13 0.55,-0.13c0.37,0 0.67,0.15 0.9,0.45c0.24,0.3 0.36,0.67 0.36,1.13c0,0.47 -0.12,0.85 -0.36,1.14c-0.23,0.29 -0.53,0.44 -0.9,0.44c-0.21,0 -0.39,-0.04 -0.55,-0.13c-0.16,-0.08 -0.31,-0.21 -0.44,-0.39l0,0.44l-0.97,0l0,-4.17l0.97,0l0,1.61z"/>
    </symbol>
    <symbol id="svg_15" overflow="visible">
     <path d="m0.06,-3l0.97,0l0.8,2.03l0.69,-2.03l0.95,0l-1.25,3.28c-0.13,0.33 -0.28,0.57 -0.45,0.7c-0.17,0.14 -0.39,0.21 -0.66,0.21l-0.56,0l0,-0.64l0.29,0c0.17,0 0.29,-0.03 0.36,-0.08c0.07,-0.04 0.13,-0.13 0.18,-0.27l0.03,-0.09l-1.35,-3.11z"/>
    </symbol>
    <symbol id="svg_17" overflow="visible">
     <path d="m0.45,-4.17l0.97,0l0,4.17l-0.97,0l0,-4.17z"/>
    </symbol>
    <symbol id="svg_16" overflow="visible">
     <path d="m0.45,-3l0.97,0l0,3l-0.97,0l0,-3zm0,-1.17l0.97,0l0,0.78l-0.97,0l0,-0.78z"/>
    </symbol>
    <symbol id="svg_11" overflow="visible">
     <path d="m3.47,-1.83l0,1.83l-0.95,0l0,-1.39c0,-0.26 -0.01,-0.44 -0.02,-0.53c-0.01,-0.1 -0.03,-0.18 -0.06,-0.24c-0.05,-0.06 -0.1,-0.11 -0.16,-0.14s-0.14,-0.04 -0.22,-0.04c-0.2,0 -0.35,0.07 -0.47,0.23c-0.11,0.15 -0.17,0.36 -0.17,0.64l0,1.47l-0.97,0l0,-4.17l0.97,0l0,1.61c0.15,-0.18 0.3,-0.31 0.46,-0.39c0.16,-0.09 0.34,-0.13 0.54,-0.13c0.35,0 0.6,0.11 0.78,0.33c0.18,0.21 0.27,0.52 0.27,0.92z"/>
    </symbol>
    <symbol id="svg_12" overflow="visible">
     <path d="m3.23,-2.5c0.13,-0.19 0.27,-0.33 0.44,-0.42c0.17,-0.1 0.35,-0.16 0.55,-0.16c0.34,0 0.6,0.11 0.78,0.33c0.19,0.21 0.28,0.52 0.28,0.92l0,1.83l-0.97,0l0,-1.56l0,-0.07c0.01,-0.03 0.02,-0.07 0.02,-0.12c0,-0.21 -0.03,-0.36 -0.1,-0.45s-0.16,-0.14 -0.31,-0.14c-0.18,0 -0.32,0.07 -0.42,0.21c-0.09,0.15 -0.15,0.37 -0.16,0.66l0,1.47l-0.95,0l0,-1.56c0,-0.33 -0.03,-0.55 -0.09,-0.64c-0.06,-0.1 -0.16,-0.14 -0.3,-0.14c-0.19,0 -0.34,0.07 -0.44,0.23c-0.09,0.15 -0.14,0.36 -0.14,0.64l0,1.47l-0.97,0l0,-3l0.97,0l0,0.44c0.12,-0.17 0.24,-0.29 0.39,-0.38c0.16,-0.09 0.33,-0.14 0.52,-0.14c0.21,0 0.39,0.06 0.55,0.16c0.15,0.1 0.27,0.24 0.35,0.42z"/>
    </symbol>
    <symbol id="svg_13" overflow="visible">
     <path d="m2.44,-4.17l0,0.64l-0.53,0c-0.14,0 -0.23,0.03 -0.28,0.08c-0.06,0.04 -0.08,0.12 -0.08,0.25l0,0.2l0.81,0l0,0.69l-0.81,0l0,2.31l-0.97,0l0,-2.31l-0.47,0l0,-0.69l0.47,0l0,-0.2c0,-0.34 0.08,-0.58 0.26,-0.74c0.19,-0.15 0.48,-0.23 0.86,-0.23l0.74,0z"/>
    </symbol>
    <symbol id="svg_5" overflow="visible">
     <path d="m1.89,-2.39c-0.22,0 -0.39,0.08 -0.5,0.23c-0.1,0.16 -0.16,0.38 -0.16,0.66c0,0.29 0.06,0.52 0.16,0.67c0.11,0.15 0.28,0.22 0.5,0.22c0.21,0 0.36,-0.07 0.47,-0.22c0.11,-0.15 0.17,-0.38 0.17,-0.67c0,-0.28 -0.06,-0.5 -0.17,-0.66c-0.11,-0.15 -0.26,-0.23 -0.47,-0.23zm0,-0.69c0.51,0 0.91,0.14 1.2,0.42c0.29,0.29 0.44,0.67 0.44,1.16c0,0.49 -0.15,0.87 -0.44,1.16c-0.29,0.28 -0.69,0.42 -1.2,0.42c-0.52,0 -0.93,-0.14 -1.22,-0.42c-0.29,-0.29 -0.44,-0.67 -0.44,-1.16c0,-0.49 0.15,-0.88 0.44,-1.16c0.29,-0.28 0.7,-0.42 1.22,-0.42z"/>
    </symbol>
    <symbol id="svg_10" overflow="visible">
     <path d="m0.5,-4l1.16,0l1.45,2.75l0,-2.75l0.98,0l0,4l-1.15,0l-1.46,-2.75l0,2.75l-0.98,0l0,-4z"/>
    </symbol>
    <symbol id="svg_9" overflow="visible">
     <path d="m0.42,-1.17l0,-1.83l0.97,0l0,0.3l0,0.62l0,0.49c0,0.24 0,0.41 0.02,0.51c0,0.11 0.03,0.19 0.06,0.24c0.04,0.06 0.09,0.11 0.16,0.15c0.06,0.03 0.13,0.05 0.21,0.05c0.2,0 0.36,-0.08 0.47,-0.23c0.12,-0.16 0.17,-0.37 0.17,-0.65l0,-1.48l0.96,0l0,3l-0.96,0l0,-0.44c-0.14,0.18 -0.3,0.31 -0.46,0.39c-0.16,0.09 -0.34,0.13 -0.54,0.13c-0.34,0 -0.6,-0.1 -0.79,-0.31c-0.18,-0.22 -0.27,-0.54 -0.27,-0.94z"/>
    </symbol>
    <symbol id="svg_8" overflow="visible">
     <path d="m3.47,-1.83l0,1.83l-0.95,0l0,-1.39c0,-0.26 -0.01,-0.44 -0.02,-0.53c-0.01,-0.1 -0.03,-0.18 -0.06,-0.24c-0.05,-0.06 -0.1,-0.11 -0.16,-0.14s-0.14,-0.04 -0.22,-0.04c-0.2,0 -0.35,0.07 -0.47,0.23c-0.11,0.15 -0.17,0.36 -0.17,0.64l0,1.47l-0.97,0l0,-3l0.97,0l0,0.44c0.15,-0.18 0.3,-0.31 0.46,-0.39c0.16,-0.09 0.34,-0.13 0.54,-0.13c0.35,0 0.6,0.11 0.78,0.33c0.18,0.21 0.27,0.52 0.27,0.92z"/>
    </symbol>
    <symbol id="svg_7" overflow="visible">
     <path d="m0.5,-4l1.72,0c0.51,0 0.9,0.12 1.17,0.34c0.27,0.22 0.41,0.55 0.41,0.97c0,0.42 -0.14,0.74 -0.41,0.97c-0.27,0.22 -0.66,0.33 -1.17,0.33l-0.69,0l0,1.39l-1.03,0l0,-4zm1.03,0.75l0,1.11l0.58,0c0.19,0 0.35,-0.05 0.45,-0.14c0.12,-0.09 0.17,-0.23 0.17,-0.41c0,-0.18 -0.05,-0.33 -0.17,-0.42c-0.1,-0.09 -0.26,-0.14 -0.45,-0.14l-0.58,0z"/>
    </symbol>
    <symbol id="svg_4" overflow="visible">
     <path d="m0.45,-3l0.97,0l0,2.95c0,0.4 -0.1,0.7 -0.3,0.91c-0.18,0.22 -0.46,0.33 -0.82,0.33l-0.49,0l0,-0.64l0.17,0c0.18,0 0.3,-0.05 0.36,-0.13c0.07,-0.07 0.11,-0.23 0.11,-0.47l0,-2.95zm0,-1.17l0.97,0l0,0.78l-0.97,0l0,-0.78z"/>
    </symbol>
    <symbol id="svg_2" overflow="visible">
     <path d="m2.89,-2.91l0,0.79c-0.14,-0.09 -0.27,-0.15 -0.41,-0.19c-0.12,-0.05 -0.26,-0.08 -0.4,-0.08c-0.26,0 -0.47,0.08 -0.63,0.23c-0.15,0.16 -0.22,0.38 -0.22,0.66s0.07,0.5 0.22,0.66c0.16,0.15 0.37,0.23 0.63,0.23c0.15,0 0.3,-0.02 0.44,-0.06c0.13,-0.04 0.25,-0.11 0.37,-0.2l0,0.78c-0.16,0.06 -0.31,0.1 -0.47,0.12c-0.15,0.03 -0.3,0.05 -0.45,0.05c-0.54,0 -0.97,-0.13 -1.28,-0.41c-0.31,-0.28 -0.46,-0.67 -0.46,-1.17c0,-0.49 0.15,-0.87 0.46,-1.16c0.31,-0.28 0.74,-0.42 1.28,-0.42c0.15,0 0.3,0.02 0.45,0.05c0.16,0.03 0.31,0.07 0.47,0.12z"/>
    </symbol>
   </defs>
   <g>
    <path d="m289.17,430.65c0,-10.87 16.47,-10.87 16.47,0l0,20.86l88.72,0l0,-20.86c0,-10.87 16.47,-10.87 16.47,0l0,20.86l20.86,0l0,-40.74c0,-19.21 -15.81,-35.02 -35.02,-35.02l-93.23,0c-19.21,0 -35.02,15.81 -35.02,35.02l0,40.74l20.75,0l0,-20.86zm60.83,-184.36c30.09,0 54.46,24.37 54.46,54.46s-24.37,54.57 -54.46,54.57s-54.46,-24.37 -54.46,-54.57c0,-29.97 24.38,-54.46 54.46,-54.46zm26.9,27.67c-23.93,-23.83 -65,-6.92 -65,26.9c0,33.82 41.07,50.84 65,26.91c14.83,-14.94 14.83,-38.98 0,-53.81zm-73.46,85.32l93.23,0c28.32,0 51.49,23.17 51.49,51.49l0,40.74l30.97,0c4.5,0 8.23,3.74 8.23,8.24l0,57.31c0,4.51 -3.73,8.24 -8.23,8.24l-258.04,0c-4.62,0 -8.24,-3.74 -8.24,-8.24l0,-57.31c0,-4.51 3.74,-8.24 8.24,-8.24l30.85,0l0,-40.74c-0.1,-28.32 23.06,-51.49 51.5,-51.49zm167.34,108.82l-241.57,0l0,40.85l241.57,0l0,-40.85zm-248.93,-134.73c-4.28,1.65 -9,-0.44 -10.65,-4.72c-1.65,-4.18 0.44,-9.01 4.72,-10.66l49.53,-19.32c4.17,-1.65 9,0.44 10.65,4.72c1.65,4.17 -0.44,9.01 -4.72,10.65l-49.53,19.33zm262.21,-15.37c4.17,1.65 6.26,6.36 4.73,10.65c-1.65,4.28 -6.37,6.37 -10.66,4.72l-49.52,-19.33c-4.17,-1.64 -6.25,-6.36 -4.72,-10.65c1.65,-4.28 6.37,-6.37 10.65,-4.72l49.52,19.33zm-142.3,-141.32c0,-10.87 16.47,-10.87 16.47,0l0,47.65c0,10.87 -16.47,10.87 -16.47,0l0,-47.65zm184.69,114.86l70.72,0c4.5,0 8.23,3.73 8.23,8.23l0,66.1c0,4.51 -3.73,8.24 -8.23,8.24l-70.72,0c-4.5,0 -8.23,-3.74 -8.23,-8.24l0,-66.1c0,-4.5 3.73,-8.23 8.23,-8.23zm62.48,16.58l-54.24,0l0,49.52l54.24,0l0,-49.52zm-433.73,-17.9l22.18,38.54l22.51,38.98c3.19,5.49 -0.87,12.3 -7.13,12.3l-90.04,0c-6.15,0 -10.65,-6.7 -6.81,-12.85l44.69,-77.41c3.4,-5.71 11.75,-5.38 14.6,0.44zm8.02,46.77l-15.37,-26.57l-30.75,53.25l61.49,0l-15.37,-26.68zm186.78,-267.37l-7.25,22.29c-1.2,3.63 -4.61,5.93 -8.23,5.71l-23.06,0l19,13.73c3.07,2.2 4.17,6.15 2.85,9.56l-7.25,21.96l19,-13.84c2.97,-2.19 6.92,-2.09 9.77,0.11l18.78,13.73l-7.25,-22.29c-1.2,-3.4 0.22,-7.14 2.97,-9.22l19.1,-13.84l-23.5,0c-3.62,0 -6.7,-2.42 -7.8,-5.72l-7.13,-22.18zm-20.97,11.64l13.17,-40.85c2.53,-7.58 13.18,-7.58 15.7,0l13.18,40.85l42.27,-0.11c8.79,-0.33 11.75,10.32 5.38,14.83l-34.7,25.14l13.4,40.74c2.41,7.46 -6.26,13.83 -12.63,9.22l-34.8,-25.36l-34.15,24.92c-6.92,5.38 -15.59,-1.31 -13.18,-8.78l13.29,-40.74l-34.7,-25.14c-6.37,-4.73 -3.18,-14.83 4.83,-14.83l42.94,0.11z"/>
    <use x="70" xlink:href="#svg_20" y="576.47"/>
    <use x="74.03" xlink:href="#svg_6" y="576.47"/>
    <use x="76.74" xlink:href="#svg_3" y="576.47"/>
    <use x="80.46" xlink:href="#svg_14" y="576.47"/>
    <use x="84.16" xlink:href="#svg_1" y="576.47"/>
    <use x="86.79" xlink:href="#svg_3" y="576.47"/>
    <use x="90.51" xlink:href="#svg_19" y="576.47"/>
    <use x="96.36" xlink:href="#svg_18" y="576.47"/>
    <use x="100.29" xlink:href="#svg_15" y="576.47"/>
    <use x="105.77" xlink:href="#svg_14" y="576.47"/>
    <use x="109.48" xlink:href="#svg_17" y="576.47"/>
    <use x="111.36" xlink:href="#svg_16" y="576.47"/>
    <use x="113.24" xlink:href="#svg_15" y="576.47"/>
    <use x="116.82" xlink:href="#svg_14" y="576.47"/>
    <use x="120.53" xlink:href="#svg_6" y="576.47"/>
    <use x="123.23" xlink:href="#svg_14" y="576.47"/>
    <use x="126.94" xlink:href="#svg_11" y="576.47"/>
    <use x="130.85" xlink:href="#svg_12" y="576.47"/>
    <use x="136.57" xlink:href="#svg_14" y="576.47"/>
    <use x="70" xlink:href="#svg_13" y="581.96"/>
    <use x="72.39" xlink:href="#svg_6" y="581.96"/>
    <use x="75.1" xlink:href="#svg_5" y="581.96"/>
    <use x="78.87" xlink:href="#svg_12" y="581.96"/>
    <use x="86.5" xlink:href="#svg_1" y="581.96"/>
    <use x="89.13" xlink:href="#svg_11" y="581.96"/>
    <use x="93.03" xlink:href="#svg_3" y="581.96"/>
    <use x="98.67" xlink:href="#svg_10" y="581.96"/>
    <use x="103.26" xlink:href="#svg_5" y="581.96"/>
    <use x="107.04" xlink:href="#svg_9" y="581.96"/>
    <use x="110.94" xlink:href="#svg_8" y="581.96"/>
    <use x="116.76" xlink:href="#svg_7" y="581.96"/>
    <use x="120.79" xlink:href="#svg_6" y="581.96"/>
    <use x="123.5" xlink:href="#svg_5" y="581.96"/>
    <use x="127.27" xlink:href="#svg_4" y="581.96"/>
    <use x="129.15" xlink:href="#svg_3" y="581.96"/>
    <use x="132.87" xlink:href="#svg_2" y="581.96"/>
    <use x="136.13" xlink:href="#svg_1" y="581.96"/>
   </g>
  </symbol>
 </defs>
 <g class="layer">
  <title>Layer 1</title>
  <use id="svg_22" transform="matrix(0.567733 0 0 0.624526 -29.238 -16.6004)" x="0" xlink:href="#svg_21" y="0"/>
  <rect fill="#ffffff" height="41" id="svg_23" stroke="#ffffff" width="113" x="14" y="432"/>
 </g>
</svg>