<?xml version="1.0" encoding="utf-8"?>
<svg viewBox="0 0 500 500" xmlns="http://www.w3.org/2000/svg">
  <path d="M 414.452 243.553 C 414.452 122.176 280.211 46.315 172.818 107.004 C 122.977 135.169 92.273 187.222 92.273 243.553 C 92.273 364.931 226.515 440.792 333.908 380.103 C 383.749 351.937 414.452 299.885 414.452 243.553 Z M 55.098 243.553 C 55.098 94.165 220.319 0.798 352.495 75.492 C 413.838 110.158 451.627 174.222 451.627 243.553 C 451.627 392.941 286.407 486.309 154.23 411.615 C 92.888 376.949 55.098 312.885 55.098 243.553 Z M 325.776 283.275 C 340.258 279.94 353.579 292.372 345.525 304.576 C 326.473 333.458 292.318 352.712 253.285 352.712 C 214.252 352.712 180.098 333.458 161.046 304.576 C 152.991 292.372 166.312 279.94 180.795 283.275 C 203.177 288.43 227.65 291.235 253.285 291.235 C 278.92 291.235 303.393 288.43 325.776 283.275 Z M 221.842 153.421 C 235.627 157.06 243.837 170.932 240.119 184.35 L 226.643 233.623 C 224.862 240.066 218.047 243.932 211.464 242.189 L 161.046 228.999 C 147.26 225.36 139.051 211.488 142.768 198.07 C 146.486 184.653 160.658 176.542 174.367 180.18 L 186.836 183.44 L 190.166 171.235 C 193.883 157.742 208.056 149.707 221.764 153.346 L 221.842 153.421 Z M 316.559 171.311 L 319.89 183.516 L 332.359 180.256 C 346.144 176.618 360.317 184.653 363.957 198.146 C 367.597 211.639 359.465 225.512 345.679 229.075 L 295.261 242.265 C 288.678 244.008 281.863 240.142 280.082 233.699 L 266.606 184.426 C 262.889 170.932 271.098 157.06 284.884 153.497 C 298.669 149.934 312.842 157.894 316.559 171.387 L 316.559 171.311 Z" style="fill: rgb(255, 215, 243);"/>
</svg>