<?xml version="1.0" encoding="UTF-8"?>
<svg width="700pt" height="700pt" version="1.1" viewBox="0 0 700 700" xmlns="http://www.w3.org/2000/svg">
 <g>
  <path d="m608.51 165.01-17.875-11.363c-0.11719-3.3594-0.375-6.6719-0.74609-9.9648l15.891-13.883c4.0117-3.5 5.1562-9.2852 2.7305-14.07l-24.406-48.16c-2.4258-4.7617-7.793-7.3047-12.949-6.1133l-20.625 4.5977c-2.4492-2.2852-5.0156-4.457-7.6055-6.5352l1.4219-21.117c0.375-5.3438-2.9414-10.219-8.0273-11.875l-51.309-16.801c-5.0625-1.7031-10.594 0.32813-13.465 4.8281l-11.34 17.875c-3.3828 0.11719-6.6953 0.375-9.9883 0.74609l-13.906-15.914c-3.5234-4.0117-9.3555-5.1328-14.07-2.7305l-41.324 20.953c-21.375-6.6953-44.355-10.359-66.965-10.359-87.941 0-167.77 52.965-198.73 131.86-9.1016 23.684-11.199 49.094-6.1602 73.383 2.0312 10.43 4.5977 16.754 5.4375 18.598 7.4219 13.395-5.7148 44.918-12.555 57.027-14.934 20.602-19.297 36.262-13.324 47.855 6.4883 12.625 21.141 12.973 20.766 12.715 7.4648 1.3281 9.0547 19.016 8.7734 25.34-0.25781 6.1602 4.293 11.48 10.43 12.133 5.5078 0.58203 8.2148 1.6797 8.9141 1.5625-0.67578 2.125-3.4531 6.1133-6.1367 8.7031-4.4336 4.1992-4.8516 11.105-1.0039 15.844 11.668 14.281 3.8281 32.852 3.5234 33.555-0.48828 1.0977-0.81641 2.2617-0.95703 3.4531-0.81641 7.1406 1.5391 13.789 6.6016 18.762 15.938 15.609 58.148 11.27 72.172 9.2383 11.969-3.125 22.168-2.125 31.219 3.2422 20.836 12.344 28.535 43.238 28.605 43.539 1.0977 4.4805 4.7383 7.9102 9.2617 8.7266 0.69922 0.14062 1.3984 0.1875 2.0781 0.1875 3.8281 0 7.4648-1.8672 9.6602-5.1094 25.969-38.406 128.59-74.152 165.92-84.676 3.1016-0.88672 5.7148-3.0117 7.2109-5.8789 1.4688-2.8477 1.7031-6.207 0.62891-9.2383-4.5273-12.762-3.8047-30.566 2.0781-52.664 8.0273-28.141 22.004-52.781 21.957-52.781h-0.023438c8.7266-12.508 15.82-26.32 21.559-40.855l43.562-22.074c4.7617-2.4023 7.3047-7.7461 6.1367-12.926l-4.5977-20.648c2.2852-2.4258 4.457-4.9922 6.5117-7.6055l21.117 1.4219c5.2266 0.23438 10.195-2.9414 11.875-8.0039l16.801-51.309c1.707-5.0586-0.27734-10.613-4.7539-13.484zm-162.57 222.07c-5.7148 21.465-7.2812 39.504-4.6445 54.785-30.078 9.2852-113.68 37.52-154.12 74.992-5.9492-12.809-16.078-28.863-32.176-38.453-14.582-8.6797-31.195-10.641-47.832-6.043-21.934 2.9648-46.27 1.5859-50.727-2.2617 2.6367-7.6055 7.7461-27.465-2.4258-46.434 4.5977-6.3945 9.1914-15.891 5.9258-25.527-2.543-7.4648-8.7969-12.648-18.668-15.422-1.4922-16.055-8.4453-35.723-27.836-39.105-0.67578-0.14062-3.2891-0.39844-3.9648-0.30469 0-0.046876-1.2852-6.0898 12.086-24.641 3.0352-5.2969 29.168-52.5 13.977-79.777-0.21094-0.48828-2.0312-5.2031-3.5938-13.113-4.1523-20.043-2.4023-40.902 5.0391-60.316 27.441-69.953 98.582-116.97 176.98-116.97 18.504 0 37.262 2.7773 54.949 7.8164l3.6406 16.262c-2.2852 2.4258-4.457 4.9922-6.5117 7.6055l-21.117-1.4219c-5.5312-0.28125-10.219 2.9414-11.875 8.0039l-16.801 51.309c-1.6562 5.0859 0.32813 10.641 4.8516 13.512l17.875 11.293c0.11719 3.3359 0.35156 6.6719 0.74609 9.9648l-15.914 13.906c-4.0117 3.5234-5.1328 9.2852-2.7305 14.07l24.406 48.16c2.4023 4.7617 7.7695 7.2578 12.926 6.1133l20.648-4.5977c2.4258 2.2852 4.9922 4.457 7.582 6.5352l-1.4219 21.117c-0.375 5.3203 2.9414 10.219 8.0273 11.875l51.309 16.801c1.1914 0.39844 2.4258 0.55859 3.6172 0.55859 3.9219 0 7.6523-1.9844 9.8477-5.3906l11.34-17.875c3.3828-0.14062 6.6953-0.375 9.9883-0.74609l9.4961 10.852c-4.875 11.715-10.664 22.984-18.152 33.809-0.625 1.0977-15.77 27.512-24.754 59.059zm131.23-173.16-18.387-1.2383c-3.9883-0.09375-7.957 1.6094-10.312 4.9219-3.6172 5.1562-7.7695 9.9883-12.273 14.352-2.9414 2.8242-4.1992 6.9531-3.3125 10.922l4.0117 17.988-31.988 16.215-12.109-13.859c-2.707-3.0781-6.8359-4.5742-10.781-3.8281-6.0898 1.0508-12.227 1.4688-18.898 1.4219-4.1758 0.375-7.8398 1.9844-10.035 5.4141l-9.8945 15.562-34.066-11.176 1.2383-18.387c0.28125-4.0586-1.5859-7.9805-4.9219-10.312-5.1562-3.6172-9.9648-7.7695-14.328-12.297-2.8477-2.918-6.9531-4.1523-10.941-3.2891l-17.988 4.0117-16.172-32.012 13.836-12.109c3.0586-2.6836 4.5039-6.7656 3.8281-10.758-1.0742-6.1602-1.5156-12.508-1.4219-18.852 0.070313-4.082-1.9844-7.9102-5.4141-10.102l-15.586-9.8242 11.176-34.066 18.387 1.2383c3.9883 0.16406 7.957-1.5859 10.312-4.9219 3.6172-5.1562 7.7695-9.9883 12.273-14.352 2.9414-2.8242 4.1992-6.9531 3.3125-10.941l-4.0117-17.965 31.988-16.215 12.109 13.859c2.6836 3.0586 6.7422 4.4805 10.781 3.8281 6.0898-1.0273 12.508-1.4688 18.875-1.4219 4.0117-0.046875 7.8633-1.9844 10.059-5.4141l9.8945-15.562 34.066 11.152-1.2383 18.387c-0.28125 4.0586 1.5859 7.9805 4.9219 10.312 5.1328 3.6172 9.9648 7.7695 14.375 12.32 2.8242 2.918 6.9531 4.1758 10.922 3.2656l17.965-3.9883 16.191 31.988-13.812 12.062c-3.0586 2.6836-4.5039 6.7422-3.8281 10.758 1.0742 6.1367 1.5391 12.484 1.4453 18.875-0.070313 4.0586 1.9844 7.8633 5.3906 10.035l15.562 9.8945z"/>
  <path d="m464.8 73.195c-46.898 0-85.074 38.172-85.074 85.074 0 46.898 38.172 85.074 85.074 85.074 46.922 0 85.074-38.172 85.074-85.074 0-46.898-38.152-85.074-85.074-85.074zm0 146.82c-34.043 0-61.738-27.695-61.738-61.738 0-34.043 27.695-61.738 61.738-61.738s61.738 27.695 61.738 61.738c0 34.039-27.695 61.738-61.738 61.738z"/>
 </g>
</svg>
