<?xml version="1.0" encoding="utf-8"?>
<svg viewBox="0 0 500 500" xmlns="http://www.w3.org/2000/svg">
  <path d="M 416.538 243.273 C 416.538 122.013 281.727 46.225 173.878 106.855 C 123.826 134.994 92.991 186.996 92.991 243.273 C 92.991 364.533 227.802 440.32 335.651 379.692 C 385.704 351.553 416.538 299.55 416.538 243.273 Z M 55.659 243.273 C 55.659 94.03 221.581 0.753 354.317 75.375 C 415.921 110.006 453.87 174.009 453.87 243.273 C 453.87 392.517 287.949 485.794 155.212 411.172 C 93.609 376.54 55.659 312.538 55.659 243.273 Z M 327.485 282.956 C 342.029 279.624 355.406 292.045 347.317 304.237 C 328.185 333.091 293.886 352.327 254.686 352.327 C 215.488 352.327 181.189 333.091 162.057 304.237 C 153.968 292.045 167.345 279.624 181.889 282.956 C 204.367 288.107 228.943 290.909 254.686 290.909 C 280.431 290.909 305.007 288.107 327.485 282.956 Z M 167.967 206.922 C 167.967 188.267 188.707 176.608 205.3 185.935 C 213 190.264 217.743 198.264 217.743 206.922 C 217.743 225.578 197.004 237.236 180.411 227.909 C 172.712 223.58 167.967 215.581 167.967 206.922 Z M 296.918 223.356 C 291.008 229.491 281.209 229.794 274.909 224.037 C 268.609 218.282 268.297 208.741 274.209 202.606 C 285.486 190.867 301.585 185.718 316.674 185.718 C 331.763 185.718 347.861 190.867 359.14 202.606 C 365.051 208.741 364.661 218.282 358.44 224.037 C 352.217 229.794 342.34 229.415 336.429 223.356 C 332.152 218.964 324.918 216.011 316.674 216.011 C 308.43 216.011 301.197 218.888 296.918 223.356 Z" style="fill: rgb(255, 215, 243);"/>
</svg>